<svg width="1200" height="420" viewBox="0 0 1200 420" fill="none" xmlns="http://www.w3.org/2000/svg" role="img" aria-labelledby="title desc">
  <title id="title">ForgeKit</title>
  <desc id="desc">ForgeKit banner showing a Gemini CLI software team workflow with agents, memory, quality gates, and GitHub delivery.</desc>
  <rect width="1200" height="420" rx="28" fill="#FAFAF8"/>
  <path d="M0 0H1200V420H0V0Z" fill="#FAFAF8"/>
  <path d="M84 96H1116" stroke="#202124" stroke-width="2" stroke-linecap="round" opacity="0.12"/>
  <path d="M84 324H1116" stroke="#202124" stroke-width="2" stroke-linecap="round" opacity="0.12"/>
  <path d="M84 96V324" stroke="#202124" stroke-width="2" stroke-linecap="round" opacity="0.12"/>
  <path d="M1116 96V324" stroke="#202124" stroke-width="2" stroke-linecap="round" opacity="0.12"/>

  <rect x="84" y="96" width="1032" height="228" rx="22" fill="#FFFFFF" stroke="#202124" stroke-width="2"/>
  <rect x="108" y="120" width="56" height="56" rx="12" fill="#00A887"/>
  <path d="M126 152H146L138 166H118L126 152Z" fill="#FFFFFF"/>
  <path d="M134 130H154L146 144H126L134 130Z" fill="#FFFFFF" opacity="0.86"/>
  <path d="M150 152H170L162 166H142L150 152Z" fill="#FFFFFF" opacity="0.7"/>

  <text x="190" y="154" font-family="Inter, ui-sans-serif, system-ui, -apple-system, BlinkMacSystemFont, Segoe UI, sans-serif" font-size="56" font-weight="800" fill="#202124" letter-spacing="0">ForgeKit</text>
  <text x="193" y="195" font-family="Inter, ui-sans-serif, system-ui, -apple-system, BlinkMacSystemFont, Segoe UI, sans-serif" font-size="22" font-weight="500" fill="#3C4043" letter-spacing="0">A structured AI software team workflow extension for Gemini CLI.</text>

  <g transform="translate(190 232)">
    <rect width="130" height="44" rx="8" fill="#E9F7F3" stroke="#00A887"/>
    <text x="65" y="28" text-anchor="middle" font-family="Inter, ui-sans-serif, system-ui, sans-serif" font-size="15" font-weight="700" fill="#0B6B57">Main Agent</text>
  </g>
  <path d="M334 254H390" stroke="#202124" stroke-width="2" stroke-linecap="round"/>
  <path d="M390 254L380 248V260L390 254Z" fill="#202124"/>

  <g transform="translate(408 218)">
    <rect width="156" height="72" rx="8" fill="#F2F4F7" stroke="#5F6368"/>
    <text x="78" y="29" text-anchor="middle" font-family="Inter, ui-sans-serif, system-ui, sans-serif" font-size="15" font-weight="700" fill="#202124">Specialists</text>
    <text x="78" y="52" text-anchor="middle" font-family="Inter, ui-sans-serif, system-ui, sans-serif" font-size="13" font-weight="500" fill="#5F6368">frontend backend QA</text>
  </g>
  <path d="M578 254H634" stroke="#202124" stroke-width="2" stroke-linecap="round"/>
  <path d="M634 254L624 248V260L634 254Z" fill="#202124"/>

  <g transform="translate(652 218)">
    <rect width="158" height="72" rx="8" fill="#FFF4D8" stroke="#D9A000"/>
    <text x="79" y="29" text-anchor="middle" font-family="Inter, ui-sans-serif, system-ui, sans-serif" font-size="15" font-weight="700" fill="#202124">Project Memory</text>
    <text x="79" y="52" text-anchor="middle" font-family="Inter, ui-sans-serif, system-ui, sans-serif" font-size="13" font-weight="500" fill="#5F6368">sessions index dashboard</text>
  </g>
  <path d="M824 254H880" stroke="#202124" stroke-width="2" stroke-linecap="round"/>
  <path d="M880 254L870 248V260L880 254Z" fill="#202124"/>

  <g transform="translate(898 218)">
    <rect width="164" height="72" rx="8" fill="#FDECEE" stroke="#D64550"/>
    <text x="82" y="29" text-anchor="middle" font-family="Inter, ui-sans-serif, system-ui, sans-serif" font-size="15" font-weight="700" fill="#202124">Verified Output</text>
    <text x="82" y="52" text-anchor="middle" font-family="Inter, ui-sans-serif, system-ui, sans-serif" font-size="13" font-weight="500" fill="#5F6368">tests review GitHub</text>
  </g>

  <g transform="translate(868 126)">
    <rect width="198" height="42" rx="8" fill="#202124"/>
    <circle cx="24" cy="21" r="7" fill="#00A887"/>
    <text x="42" y="27" font-family="Inter, ui-sans-serif, system-ui, sans-serif" font-size="14" font-weight="700" fill="#FFFFFF">Gemini CLI Extension</text>
  </g>
</svg>
